if (_typeface_js && _typeface_js.loadFace) _typeface_js.loadFace({"glyphs":{"0":{"ha":1360,"x_min":0,"x_max":1190,"o":"m 850 170 l 850 0 l 340 0 l 340 170 l 170 170 l 170 340 l 0 340 l 0 850 l 170 850 l 170 1020 l 340 1020 l 340 340 l 510 340 l 510 170 l 850 170 m 340 1020 l 340 1190 l 850 1190 l 850 1020 l 1020 1020 l 1020 850 l 1190 850 l 1190 340 l 1020 340 l 1020 170 l 850 170 l 850 850 l 680 850 l 680 1020 l 340 1020 z "},"1":{"ha":1360,"x_min":170,"x_max":1190,"o":"m 340 1020 l 510 1020 l 510 1190 l 850 1190 l 850 170 l 1190 170 l 1190 0 l 170 0 l 170 170 l 510 170 l 510 850 l 340 850 l 340 1020 z "},"2":{"ha":1360,"x_min":0,"x_max":1190,"o":"m 0 850 l 0 1020 l 170 1020 l 170 1190 l 1020 1190 l 1020 1020 l 1190 1020 l 1190 680 l 1020 680 l 1020 510 l 850 510 l 850 340 l 510 340 l 510 170 l 1190 170 l 1190 0 l 0 0 l 0 340 l 170 340 l 170 510 l 340 510 l 340 680 l 680 680 l 680 850 l 850 850 l 850 1020 l 340 1020 l 340 850 l 0 850 z "},"3":{"ha":1360,"x_min":0,"x_max":1190,"o":"m 170 1190 l 1190 1190 l 1190 1020 l 1020 1020 l 1020 850 l 850 850 l 850 680 l 1020 680 l 1020 510 l 1190 510 l 1190 170 l 1020 170 l 1020 0 l 170 0 l 170 170 l 0 170 l 0 340 l 340 340 l 340 170 l 850 170 l 850 510 l 340 510 l 340 680 l 510 680 l 510 850 l 680 850 l 680 1020 l 170 1020 l 170 1190 z "},"4":{"ha":1360,"x_min":0,"x_max":1190,"o":"m 510 1190 l 1020 1190 l 1020 510 l 1190 510 l 1190 340 l 1020 340 l 1020 0 l 680 0 l 680 340 l 0 340 l 0 680 l 170 680 l 170 850 l 340 850 l 340 1020 l 510 1020 l 510 1190 m 510 850 l 510 680 l 340 680 l 340 510 l 680 510 l 680 850 l 510 850 z "},"5":{"ha":1360,"x_min":0,"x_max":1190,"o":"m 0 1190 l 1020 1190 l 1020 1020 l 340 1020 l 340 850 l 1020 850 l 1020 680 l 1190 680 l 1190 170 l 1020 170 l 1020 0 l 170 0 l 170 170 l 0 170 l 0 340 l 340 340 l 340 170 l 850 170 l 850 680 l 0 680 l 0 1190 z "},"6":{"ha":1360,"x_min":0,"x_max":1190,"o":"m 340 1190 l 1020 1190 l 1020 1020 l 510 1020 l 510 850 l 340 850 l 340 680 l 1020 680 l 1020 510 l 1190 510 l 1190 170 l 1020 170 l 1020 0 l 170 0 l 170 170 l 0 170 l 0 850 l 170 850 l 170 1020 l 340 1020 l 340 1190 m 340 510 l 340 170 l 850 170 l 850 510 l 340 510 z "},"7":{"ha":1360,"x_min":0,"x_max":1190,"o":"m 0 850 l 0 1190 l 1190 1190 l 1190 850 l 1020 850 l 1020 680 l 850 680 l 850 510 l 680 510 l 680 0 l 340 0 l 340 510 l 510 510 l 510 680 l 680 680 l 680 850 l 850 850 l 850 1020 l 340 1020 l 340 850 l 0 850 z "},"8":{"ha":1360,"x_min":0,"x_max":1190,"o":"m 850 1020 l 1020 1020 l 1020 680 l 850 680 l 850 1020 m 170 170 l 0 170 l 0 510 l 170 510 l 170 170 m 170 510 l 170 680 l 0 680 l 0 1020 l 170 1020 l 170 1190 l 850 1190 l 850 1020 l 340 1020 l 340 850 l 510 850 l 510 680 l 850 680 l 850 510 l 1190 510 l 1190 170 l 1020 170 l 1020 0 l 170 0 l 170 170 l 850 170 l 850 340 l 510 340 l 510 510 l 170 510 z "},"9":{"ha":1360,"x_min":0,"x_max":1190,"o":"m 170 1190 l 1020 1190 l 1020 1020 l 1190 1020 l 1190 340 l 1020 340 l 1020 170 l 850 170 l 850 0 l 170 0 l 170 170 l 680 170 l 680 340 l 850 340 l 850 510 l 170 510 l 170 680 l 0 680 l 0 1020 l 170 1020 l 170 1190 m 340 1020 l 340 680 l 850 680 l 850 1020 l 340 1020 z "}," ":{"ha":1360,"x_min":0,"x_max":0,"o":""},"!":{"ha":1360,"x_min":340,"x_max":680,"o":"m 340 1190 l 680 1190 l 680 510 l 340 510 l 340 1190 m 340 340 l 680 340 l 680 0 l 340 0 l 340 340 z "},"\"":{"ha":1360,"x_min":170,"x_max":1020,"o":"m 170 1190 l 510 1190 l 510 680 l 340 680 l 340 850 l 170 850 l 170 1190 m 170 680 l 340 680 l 340 510 l 170 510 l 170 680 m 680 1190 l 1020 1190 l 1020 680 l 850 680 l 850 850 l 680 850 l 680 1190 m 680 680 l 850 680 l 850 510 l 680 510 l 680 680 z "},"#":{"ha":1360,"x_min":170,"x_max":1020,"o":"m 170 850 l 340 850 l 340 1020 l 510 1020 l 510 850 l 680 850 l 680 1020 l 850 1020 l 850 850 l 1020 850 l 1020 680 l 850 680 l 850 510 l 1020 510 l 1020 340 l 850 340 l 850 170 l 680 170 l 680 340 l 510 340 l 510 170 l 340 170 l 340 340 l 170 340 l 170 510 l 340 510 l 340 680 l 170 680 l 170 850 m 510 680 l 510 510 l 680 510 l 680 680 l 510 680 z "},"$":{"ha":1360,"x_min":170,"x_max":1020,"o":"m 340 680 l 170 680 l 170 850 l 340 850 l 340 680 m 850 510 l 1020 510 l 1020 340 l 850 340 l 850 510 m 680 510 l 680 340 l 850 340 l 850 170 l 680 170 l 680 0 l 510 0 l 510 170 l 170 170 l 170 340 l 510 340 l 510 510 l 340 510 l 340 680 l 510 680 l 510 850 l 340 850 l 340 1020 l 510 1020 l 510 1190 l 680 1190 l 680 1020 l 1020 1020 l 1020 850 l 680 850 l 680 680 l 850 680 l 850 510 l 680 510 z "},"%":{"ha":1360,"x_min":0,"x_max":1190,"o":"m 170 850 l 0 850 l 0 1020 l 170 1020 l 170 850 m 340 850 l 340 680 l 170 680 l 170 850 l 340 850 m 340 1020 l 510 1020 l 510 850 l 340 850 l 340 1020 m 170 1020 l 170 1190 l 340 1190 l 340 1020 l 170 1020 m 850 170 l 680 170 l 680 340 l 850 340 l 850 170 m 1020 170 l 1020 0 l 850 0 l 850 170 l 1020 170 m 1020 340 l 1190 340 l 1190 170 l 1020 170 l 1020 340 m 850 340 l 850 510 l 1020 510 l 1020 340 l 850 340 m 1020 1020 l 1020 1190 l 1190 1190 l 1190 1020 l 1020 1020 m 850 850 l 850 1020 l 1020 1020 l 1020 850 l 850 850 m 680 680 l 680 850 l 850 850 l 850 680 l 680 680 m 510 510 l 510 680 l 680 680 l 680 510 l 510 510 m 340 340 l 340 510 l 510 510 l 510 340 l 340 340 m 170 170 l 170 340 l 340 340 l 340 170 l 170 170 m 0 0 l 0 170 l 170 170 l 170 0 l 0 0 z "},"&":{"ha":1360,"x_min":0,"x_max":1190,"o":"m 680 1020 l 850 1020 l 850 680 l 680 680 l 680 1020 m 170 128 l 680 128 l 680 0 l 170 0 l 170 128 m 170 510 l 170 128 l 0 128 l 0 510 l 170 510 m 510 510 l 170 510 l 170 680 l 0 680 l 0 1020 l 170 1020 l 170 1190 l 680 1190 l 680 1020 l 340 1020 l 340 850 l 510 850 l 510 680 l 680 680 l 680 510 l 1190 510 l 1190 340 l 1020 340 l 1020 170 l 1190 170 l 1190 0 l 850 0 l 850 128 l 680 128 l 680 340 l 510 340 l 510 510 z "},"'":{"ha":1360,"x_min":170,"x_max":510,"o":"m 170 1190 l 510 1190 l 510 680 l 340 680 l 340 850 l 170 850 l 170 1190 m 170 680 l 340 680 l 340 510 l 170 510 l 170 680 z "},"(":{"ha":1360,"x_min":170,"x_max":850,"o":"m 510 1190 l 850 1190 l 850 1020 l 680 1020 l 680 850 l 510 850 l 510 340 l 680 340 l 680 170 l 850 170 l 850 0 l 510 0 l 510 170 l 340 170 l 340 340 l 170 340 l 170 850 l 340 850 l 340 1020 l 510 1020 l 510 1190 z "},")":{"ha":1360,"x_min":340,"x_max":1020,"o":"m 340 1190 l 680 1190 l 680 1020 l 850 1020 l 850 850 l 1020 850 l 1020 340 l 850 340 l 850 170 l 680 170 l 680 0 l 340 0 l 340 170 l 510 170 l 510 340 l 680 340 l 680 850 l 510 850 l 510 1020 l 340 1020 l 340 1190 z "},"*":{"ha":1360,"x_min":170,"x_max":1020,"o":"m 340 510 l 340 340 l 170 340 l 170 510 l 340 510 m 850 510 l 1020 510 l 1020 340 l 850 340 l 850 510 m 850 680 l 850 850 l 1020 850 l 1020 680 l 850 680 m 340 680 l 510 680 l 510 1020 l 680 1020 l 680 680 l 850 680 l 850 510 l 680 510 l 680 170 l 510 170 l 510 510 l 340 510 l 340 680 m 170 850 l 340 850 l 340 680 l 170 680 l 170 850 z "},"+":{"ha":1360,"x_min":170,"x_max":1020,"o":"m 510 1020 l 680 1020 l 680 680 l 1020 680 l 1020 510 l 680 510 l 680 170 l 510 170 l 510 510 l 170 510 l 170 680 l 510 680 l 510 1020 z "},",":{"ha":1360,"x_min":170,"x_max":510,"o":"m 340 170 l 340 0 l 170 0 l 170 170 l 340 170 m 170 680 l 510 680 l 510 170 l 340 170 l 340 340 l 170 340 l 170 680 z "},"-":{"ha":1360,"x_min":170,"x_max":1020,"o":"m 170 680 l 1020 680 l 1020 510 l 170 510 l 170 680 z "},".":{"ha":1360,"x_min":170,"x_max":510,"o":"m 170 340 l 510 340 l 510 0 l 170 0 l 170 340 z "},"/":{"ha":1360,"x_min":0,"x_max":1190,"o":"m 170 170 l 170 0 l 0 0 l 0 170 l 170 170 m 340 340 l 340 170 l 170 170 l 170 340 l 340 340 m 510 510 l 510 340 l 340 340 l 340 510 l 510 510 m 680 680 l 680 510 l 510 510 l 510 680 l 680 680 m 850 850 l 850 680 l 680 680 l 680 850 l 850 850 m 1020 1020 l 1020 850 l 850 850 l 850 1020 l 1020 1020 m 1020 1190 l 1190 1190 l 1190 1020 l 1020 1020 l 1020 1190 z "},":":{"ha":1360,"x_min":170,"x_max":510,"o":"m 170 1020 l 510 1020 l 510 680 l 170 680 l 170 1020 m 170 340 l 510 340 l 510 0 l 170 0 l 170 340 z "},";":{"ha":1360,"x_min":170,"x_max":510,"o":"m 170 1190 l 510 1190 l 510 850 l 170 850 l 170 1190 m 340 170 l 340 0 l 170 0 l 170 170 l 340 170 m 170 680 l 510 680 l 510 170 l 340 170 l 340 340 l 170 340 l 170 680 z "},"<":{"ha":1360,"x_min":170,"x_max":850,"o":"m 510 1020 l 850 1020 l 850 850 l 680 850 l 680 680 l 510 680 l 510 510 l 680 510 l 680 340 l 850 340 l 850 170 l 510 170 l 510 340 l 340 340 l 340 510 l 170 510 l 170 680 l 340 680 l 340 850 l 510 850 l 510 1020 z "},"=":{"ha":1360,"x_min":170,"x_max":1020,"o":"m 170 850 l 1020 850 l 1020 680 l 170 680 l 170 850 m 170 510 l 1020 510 l 1020 340 l 170 340 l 170 510 z "},">":{"ha":1360,"x_min":340,"x_max":1020,"o":"m 340 1020 l 680 1020 l 680 850 l 850 850 l 850 680 l 1020 680 l 1020 510 l 850 510 l 850 340 l 680 340 l 680 170 l 340 170 l 340 340 l 510 340 l 510 510 l 680 510 l 680 680 l 510 680 l 510 850 l 340 850 l 340 1020 z "},"?":{"ha":1360,"x_min":0,"x_max":1190,"o":"m 0 850 l 0 1020 l 170 1020 l 170 1190 l 1020 1190 l 1020 1020 l 1190 1020 l 1190 850 l 1020 850 l 1020 680 l 680 680 l 680 510 l 340 510 l 340 680 l 510 680 l 510 850 l 850 850 l 850 1020 l 340 1020 l 340 850 l 0 850 m 340 340 l 680 340 l 680 0 l 340 0 l 340 340 z "},"@":{"ha":1360,"x_min":0,"x_max":1190,"o":"m 170 1190 l 1020 1190 l 1020 1020 l 1190 1020 l 1190 510 l 1020 510 l 1020 340 l 340 340 l 340 170 l 1020 170 l 1020 0 l 170 0 l 170 170 l 0 170 l 0 1020 l 170 1020 l 170 1190 m 340 1020 l 340 850 l 680 850 l 680 510 l 850 510 l 850 1020 l 340 1020 m 340 680 l 340 510 l 510 510 l 510 680 l 340 680 z "},"A":{"ha":1360,"x_min":0,"x_max":1190,"o":"m 340 1190 l 850 1190 l 850 1020 l 1020 1020 l 1020 850 l 1190 850 l 1190 0 l 850 0 l 850 340 l 340 340 l 340 0 l 0 0 l 0 850 l 170 850 l 170 1020 l 340 1020 l 340 1190 m 510 1020 l 510 850 l 340 850 l 340 510 l 850 510 l 850 850 l 680 850 l 680 1020 l 510 1020 z "},"B":{"ha":1360,"x_min":0,"x_max":1190,"o":"m 0 1190 l 1020 1190 l 1020 1020 l 1190 1020 l 1190 680 l 1020 680 l 1020 510 l 1190 510 l 1190 170 l 1020 170 l 1020 0 l 0 0 l 0 1190 m 340 1020 l 340 680 l 850 680 l 850 1020 l 340 1020 m 340 510 l 340 170 l 850 170 l 850 510 l 340 510 z "},"C":{"ha":1360,"x_min":0,"x_max":1190,"o":"m 340 1190 l 1020 1190 l 1020 1020 l 1190 1020 l 1190 850 l 850 850 l 850 1020 l 510 1020 l 510 850 l 340 850 l 340 340 l 510 340 l 510 170 l 850 170 l 850 340 l 1190 340 l 1190 170 l 1020 170 l 1020 0 l 340 0 l 340 170 l 170 170 l 170 340 l 0 340 l 0 850 l 170 850 l 170 1020 l 340 1020 l 340 1190 z "},"D":{"ha":1360,"x_min":0,"x_max":1190,"o":"m 0 1190 l 850 1190 l 850 1020 l 1020 1020 l 1020 850 l 1190 850 l 1190 340 l 1020 340 l 1020 170 l 850 170 l 850 0 l 0 0 l 0 1190 m 340 1020 l 340 170 l 680 170 l 680 340 l 850 340 l 850 850 l 680 850 l 680 1020 l 340 1020 z "},"E":{"ha":1360,"x_min":0,"x_max":1190,"o":"m 0 1190 l 1190 1190 l 1190 1020 l 340 1020 l 340 680 l 1020 680 l 1020 510 l 340 510 l 340 170 l 1190 170 l 1190 0 l 0 0 l 0 1190 z "},"F":{"ha":1360,"x_min":0,"x_max":1190,"o":"m 0 1190 l 1190 1190 l 1190 1020 l 340 1020 l 340 680 l 1020 680 l 1020 510 l 340 510 l 340 0 l 0 0 l 0 1190 z "},"G":{"ha":1360,"x_min":0,"x_max":1190,"o":"m 340 1190 l 1190 1190 l 1190 1020 l 510 1020 l 510 850 l 340 850 l 340 340 l 510 340 l 510 170 l 850 170 l 850 510 l 680 510 l 680 680 l 1190 680 l 1190 0 l 340 0 l 340 170 l 170 170 l 170 340 l 0 340 l 0 850 l 170 850 l 170 1020 l 340 1020 l 340 1190 z "},"H":{"ha":1360,"x_min":0,"x_max":1190,"o":"m 0 1190 l 340 1190 l 340 680 l 850 680 l 850 1190 l 1190 1190 l 1190 0 l 850 0 l 850 510 l 340 510 l 340 0 l 0 0 l 0 1190 z "},"I":{"ha":1360,"x_min":170,"x_max":1190,"o":"m 170 1190 l 1190 1190 l 1190 1020 l 850 1020 l 850 170 l 1190 170 l 1190 0 l 170 0 l 170 170 l 510 170 l 510 1020 l 170 1020 l 170 1190 z "},"J":{"ha":1360,"x_min":0,"x_max":1190,"o":"m 850 1190 l 1190 1190 l 1190 170 l 1020 170 l 1020 0 l 170 0 l 170 170 l 0 170 l 0 510 l 340 510 l 340 170 l 850 170 l 850 1190 z "},"K":{"ha":1360,"x_min":0,"x_max":1190,"o":"m 0 1190 l 340 1190 l 340 680 l 510 680 l 510 850 l 680 850 l 680 1020 l 850 1020 l 850 1190 l 1190 1190 l 1190 1020 l 1020 1020 l 1020 850 l 850 850 l 850 680 l 680 680 l 680 510 l 850 510 l 850 340 l 1020 340 l 1020 170 l 1190 170 l 1190 0 l 680 0 l 680 170 l 510 170 l 510 340 l 340 340 l 340 0 l 0 0 l 0 1190 z "},"L":{"ha":1360,"x_min":0,"x_max":1190,"o":"m 0 1190 l 340 1190 l 340 170 l 1190 170 l 1190 0 l 0 0 l 0 1190 z "},"M":{"ha":1360,"x_min":0,"x_max":1190,"o":"m 0 1190 l 340 1190 l 340 1020 l 510 1020 l 510 850 l 680 850 l 680 1020 l 850 1020 l 850 1190 l 1190 1190 l 1190 0 l 850 0 l 850 510 l 680 510 l 680 340 l 510 340 l 510 510 l 340 510 l 340 0 l 0 0 l 0 1190 z "},"N":{"ha":1360,"x_min":0,"x_max":1190,"o":"m 0 1190 l 340 1190 l 340 1020 l 510 1020 l 510 850 l 680 850 l 680 680 l 850 680 l 850 1190 l 1190 1190 l 1190 0 l 850 0 l 850 170 l 680 170 l 680 340 l 510 340 l 510 510 l 340 510 l 340 0 l 0 0 l 0 1190 z "},"O":{"ha":1360,"x_min":0,"x_max":1190,"o":"m 170 1190 l 1020 1190 l 1020 1020 l 1190 1020 l 1190 170 l 1020 170 l 1020 0 l 170 0 l 170 170 l 0 170 l 0 1020 l 170 1020 l 170 1190 m 340 1020 l 340 170 l 850 170 l 850 1020 l 340 1020 z "},"P":{"ha":1360,"x_min":0,"x_max":1190,"o":"m 0 1190 l 1020 1190 l 1020 1020 l 1190 1020 l 1190 510 l 1020 510 l 1020 340 l 340 340 l 340 0 l 0 0 l 0 1190 m 850 1020 l 340 1020 l 340 510 l 850 510 l 850 1020 z "},"Q":{"ha":1360,"x_min":0,"x_max":1190,"o":"m 1020 170 l 1190 170 l 1190 0 l 1020 0 l 1020 170 m 170 1190 l 1020 1190 l 1020 1020 l 1190 1020 l 1190 340 l 1020 340 l 1020 170 l 850 170 l 850 0 l 170 0 l 170 170 l 0 170 l 0 1020 l 170 1020 l 170 1190 m 340 1020 l 340 170 l 680 170 l 680 340 l 510 340 l 510 510 l 850 510 l 850 1020 l 340 1020 z "},"R":{"ha":1360,"x_min":0,"x_max":1190,"o":"m 0 1190 l 1020 1190 l 1020 1020 l 1190 1020 l 1190 510 l 850 510 l 850 340 l 1020 340 l 1020 170 l 1190 170 l 1190 0 l 680 0 l 680 170 l 510 170 l 510 340 l 340 340 l 340 0 l 0 0 l 0 1190 m 340 1020 l 340 510 l 680 510 l 680 680 l 850 680 l 850 1020 l 340 1020 z "},"S":{"ha":1360,"x_min":0,"x_max":1190,"o":"m 170 1190 l 850 1190 l 850 1020 l 1020 1020 l 1020 850 l 680 850 l 680 1020 l 340 1020 l 340 680 l 1020 680 l 1020 510 l 1190 510 l 1190 170 l 1020 170 l 1020 0 l 170 0 l 170 170 l 0 170 l 0 340 l 340 340 l 340 170 l 850 170 l 850 510 l 170 510 l 170 680 l 0 680 l 0 1020 l 170 1020 l 170 1190 z "},"T":{"ha":1360,"x_min":170,"x_max":1190,"o":"m 170 1190 l 1190 1190 l 1190 1020 l 850 1020 l 850 0 l 510 0 l 510 1020 l 170 1020 l 170 1190 z "},"U":{"ha":1360,"x_min":0,"x_max":1190,"o":"m 0 1190 l 340 1190 l 340 170 l 850 170 l 850 1190 l 1190 1190 l 1190 170 l 1020 170 l 1020 0 l 170 0 l 170 170 l 0 170 l 0 1190 z "},"V":{"ha":1360,"x_min":0,"x_max":1190,"o":"m 0 1190 l 340 1190 l 340 680 l 510 680 l 510 510 l 680 510 l 680 680 l 850 680 l 850 1190 l 1190 1190 l 1190 510 l 1020 510 l 1020 340 l 850 340 l 850 170 l 680 170 l 680 0 l 510 0 l 510 170 l 340 170 l 340 340 l 170 340 l 170 510 l 0 510 l 0 1190 z "},"W":{"ha":1360,"x_min":0,"x_max":1190,"o":"m 0 1190 l 340 1190 l 340 510 l 510 510 l 510 680 l 680 680 l 680 510 l 850 510 l 850 1190 l 1190 1190 l 1190 0 l 850 0 l 850 170 l 680 170 l 680 340 l 510 340 l 510 170 l 340 170 l 340 0 l 0 0 l 0 1190 z "},"X":{"ha":1360,"x_min":0,"x_max":1190,"o":"m 0 1190 l 340 1190 l 340 1020 l 510 1020 l 510 850 l 680 850 l 680 1020 l 850 1020 l 850 1190 l 1190 1190 l 1190 850 l 1020 850 l 1020 680 l 850 680 l 850 510 l 1020 510 l 1020 340 l 1190 340 l 1190 0 l 850 0 l 850 170 l 680 170 l 680 340 l 510 340 l 510 170 l 340 170 l 340 0 l 0 0 l 0 340 l 170 340 l 170 510 l 340 510 l 340 680 l 170 680 l 170 850 l 0 850 l 0 1190 z "},"Y":{"ha":1360,"x_min":170,"x_max":1190,"o":"m 170 1190 l 510 1190 l 510 680 l 850 680 l 850 1190 l 1190 1190 l 1190 680 l 1020 680 l 1020 510 l 850 510 l 850 0 l 510 0 l 510 510 l 340 510 l 340 680 l 170 680 l 170 1190 z "},"Z":{"ha":1360,"x_min":0,"x_max":1190,"o":"m 0 1190 l 1190 1190 l 1190 850 l 1020 850 l 1020 680 l 850 680 l 850 510 l 680 510 l 680 340 l 510 340 l 510 170 l 1190 170 l 1190 0 l 0 0 l 0 340 l 170 340 l 170 510 l 340 510 l 340 680 l 510 680 l 510 850 l 680 850 l 680 1020 l 0 1020 l 0 1190 z "},"[":{"ha":1360,"x_min":340,"x_max":850,"o":"m 340 1190 l 850 1190 l 850 1020 l 680 1020 l 680 170 l 850 170 l 850 0 l 340 0 l 340 1190 z "},"\\":{"ha":1360,"x_min":0,"x_max":1190,"o":"m 1020 170 l 1190 170 l 1190 0 l 1020 0 l 1020 170 m 850 340 l 1020 340 l 1020 170 l 850 170 l 850 340 m 680 510 l 850 510 l 850 340 l 680 340 l 680 510 m 510 680 l 680 680 l 680 510 l 510 510 l 510 680 m 340 850 l 510 850 l 510 680 l 340 680 l 340 850 m 170 1020 l 340 1020 l 340 850 l 170 850 l 170 1020 m 0 1190 l 170 1190 l 170 1020 l 0 1020 l 0 1190 z "},"]":{"ha":1360,"x_min":340,"x_max":850,"o":"m 340 1190 l 850 1190 l 850 0 l 340 0 l 340 170 l 510 170 l 510 1020 l 340 1020 l 340 1190 z "},"^":{"ha":1360,"x_min":340,"x_max":850,"o":"m 680 1020 l 850 1020 l 850 850 l 680 850 l 680 1020 m 510 1020 l 510 1190 l 680 1190 l 680 1020 l 510 1020 m 340 1020 l 510 1020 l 510 850 l 340 850 l 340 1020 z "},"_":{"ha":1360,"x_min":0,"x_max":1190,"o":"m 0 170 l 1190 170 l 1190 0 l 0 0 l 0 170 z "},"`":{"ha":1360,"x_min":510,"x_max":850,"o":"m 680 1020 l 850 1020 l 850 850 l 680 850 l 680 1020 m 510 1190 l 680 1190 l 680 1020 l 510 1020 l 510 1190 z "},"a":{"ha":1360,"x_min":0,"x_max":1190,"o":"m 340 1190 l 850 1190 l 850 1020 l 1020 1020 l 1020 850 l 1190 850 l 1190 0 l 850 0 l 850 340 l 340 340 l 340 0 l 0 0 l 0 850 l 170 850 l 170 1020 l 340 1020 l 340 1190 m 510 1020 l 510 850 l 340 850 l 340 510 l 850 510 l 850 850 l 680 850 l 680 1020 l 510 1020 z "},"b":{"ha":1360,"x_min":0,"x_max":1190,"o":"m 0 1190 l 1020 1190 l 1020 1020 l 1190 1020 l 1190 680 l 1020 680 l 1020 510 l 1190 510 l 1190 170 l 1020 170 l 1020 0 l 0 0 l 0 1190 m 340 1020 l 340 680 l 850 680 l 850 1020 l 340 1020 m 340 510 l 340 170 l 850 170 l 850 510 l 340 510 z "},"c":{"ha":1360,"x_min":0,"x_max":1190,"o":"m 340 1190 l 1020 1190 l 1020 1020 l 1190 1020 l 1190 850 l 850 850 l 850 1020 l 510 1020 l 510 850 l 340 850 l 340 340 l 510 340 l 510 170 l 850 170 l 850 340 l 1190 340 l 1190 170 l 1020 170 l 1020 0 l 340 0 l 340 170 l 170 170 l 170 340 l 0 340 l 0 850 l 170 850 l 170 1020 l 340 1020 l 340 1190 z "},"d":{"ha":1360,"x_min":0,"x_max":1190,"o":"m 0 1190 l 850 1190 l 850 1020 l 1020 1020 l 1020 850 l 1190 850 l 1190 340 l 1020 340 l 1020 170 l 850 170 l 850 0 l 0 0 l 0 1190 m 340 1020 l 340 170 l 680 170 l 680 340 l 850 340 l 850 850 l 680 850 l 680 1020 l 340 1020 z "},"e":{"ha":1360,"x_min":0,"x_max":1190,"o":"m 0 1190 l 1190 1190 l 1190 1020 l 340 1020 l 340 680 l 1020 680 l 1020 510 l 340 510 l 340 170 l 1190 170 l 1190 0 l 0 0 l 0 1190 z "},"f":{"ha":1360,"x_min":0,"x_max":1190,"o":"m 0 1190 l 1190 1190 l 1190 1020 l 340 1020 l 340 680 l 1020 680 l 1020 510 l 340 510 l 340 0 l 0 0 l 0 1190 z "},"g":{"ha":1360,"x_min":0,"x_max":1190,"o":"m 340 1190 l 1190 1190 l 1190 1020 l 510 1020 l 510 850 l 340 850 l 340 340 l 510 340 l 510 170 l 850 170 l 850 510 l 680 510 l 680 680 l 1190 680 l 1190 0 l 340 0 l 340 170 l 170 170 l 170 340 l 0 340 l 0 850 l 170 850 l 170 1020 l 340 1020 l 340 1190 z "},"h":{"ha":1360,"x_min":0,"x_max":1190,"o":"m 0 1190 l 340 1190 l 340 680 l 850 680 l 850 1190 l 1190 1190 l 1190 0 l 850 0 l 850 510 l 340 510 l 340 0 l 0 0 l 0 1190 z "},"i":{"ha":1360,"x_min":170,"x_max":1190,"o":"m 170 1190 l 1190 1190 l 1190 1020 l 850 1020 l 850 170 l 1190 170 l 1190 0 l 170 0 l 170 170 l 510 170 l 510 1020 l 170 1020 l 170 1190 z "},"j":{"ha":1360,"x_min":0,"x_max":1190,"o":"m 850 1190 l 1190 1190 l 1190 170 l 1020 170 l 1020 0 l 170 0 l 170 170 l 0 170 l 0 510 l 340 510 l 340 170 l 850 170 l 850 1190 z "},"k":{"ha":1360,"x_min":0,"x_max":1190,"o":"m 0 1190 l 340 1190 l 340 680 l 510 680 l 510 850 l 680 850 l 680 1020 l 850 1020 l 850 1190 l 1190 1190 l 1190 1020 l 1020 1020 l 1020 850 l 850 850 l 850 680 l 680 680 l 680 510 l 850 510 l 850 340 l 1020 340 l 1020 170 l 1190 170 l 1190 0 l 680 0 l 680 170 l 510 170 l 510 340 l 340 340 l 340 0 l 0 0 l 0 1190 z "},"l":{"ha":1360,"x_min":0,"x_max":1190,"o":"m 0 1190 l 340 1190 l 340 170 l 1190 170 l 1190 0 l 0 0 l 0 1190 z "},"m":{"ha":1360,"x_min":0,"x_max":1190,"o":"m 0 1190 l 340 1190 l 340 1020 l 510 1020 l 510 850 l 680 850 l 680 1020 l 850 1020 l 850 1190 l 1190 1190 l 1190 0 l 850 0 l 850 510 l 680 510 l 680 340 l 510 340 l 510 510 l 340 510 l 340 0 l 0 0 l 0 1190 z "},"n":{"ha":1360,"x_min":0,"x_max":1190,"o":"m 0 1190 l 340 1190 l 340 1020 l 510 1020 l 510 850 l 680 850 l 680 680 l 850 680 l 850 1190 l 1190 1190 l 1190 0 l 850 0 l 850 170 l 680 170 l 680 340 l 510 340 l 510 510 l 340 510 l 340 0 l 0 0 l 0 1190 z "},"o":{"ha":1360,"x_min":0,"x_max":1190,"o":"m 170 1190 l 1020 1190 l 1020 1020 l 1190 1020 l 1190 170 l 1020 170 l 1020 0 l 170 0 l 170 170 l 0 170 l 0 1020 l 170 1020 l 170 1190 m 340 1020 l 340 170 l 850 170 l 850 1020 l 340 1020 z "},"p":{"ha":1360,"x_min":0,"x_max":1190,"o":"m 0 1190 l 1020 1190 l 1020 1020 l 1190 1020 l 1190 510 l 1020 510 l 1020 340 l 340 340 l 340 0 l 0 0 l 0 1190 m 850 1020 l 340 1020 l 340 510 l 850 510 l 850 1020 z "},"q":{"ha":1360,"x_min":0,"x_max":1190,"o":"m 1020 170 l 1190 170 l 1190 0 l 1020 0 l 1020 170 m 170 1190 l 1020 1190 l 1020 1020 l 1190 1020 l 1190 340 l 1020 340 l 1020 170 l 850 170 l 850 0 l 170 0 l 170 170 l 0 170 l 0 1020 l 170 1020 l 170 1190 m 340 1020 l 340 170 l 680 170 l 680 340 l 510 340 l 510 510 l 850 510 l 850 1020 l 340 1020 z "},"r":{"ha":1360,"x_min":0,"x_max":1190,"o":"m 0 1190 l 1020 1190 l 1020 1020 l 1190 1020 l 1190 510 l 850 510 l 850 340 l 1020 340 l 1020 170 l 1190 170 l 1190 0 l 680 0 l 680 170 l 510 170 l 510 340 l 340 340 l 340 0 l 0 0 l 0 1190 m 340 1020 l 340 510 l 680 510 l 680 680 l 850 680 l 850 1020 l 340 1020 z "},"s":{"ha":1360,"x_min":0,"x_max":1190,"o":"m 170 1190 l 850 1190 l 850 1020 l 1020 1020 l 1020 850 l 680 850 l 680 1020 l 340 1020 l 340 680 l 1020 680 l 1020 510 l 1190 510 l 1190 170 l 1020 170 l 1020 0 l 170 0 l 170 170 l 0 170 l 0 340 l 340 340 l 340 170 l 850 170 l 850 510 l 170 510 l 170 680 l 0 680 l 0 1020 l 170 1020 l 170 1190 z "},"t":{"ha":1360,"x_min":170,"x_max":1190,"o":"m 170 1190 l 1190 1190 l 1190 1020 l 850 1020 l 850 0 l 510 0 l 510 1020 l 170 1020 l 170 1190 z "},"u":{"ha":1360,"x_min":0,"x_max":1190,"o":"m 0 1190 l 340 1190 l 340 170 l 850 170 l 850 1190 l 1190 1190 l 1190 170 l 1020 170 l 1020 0 l 170 0 l 170 170 l 0 170 l 0 1190 z "},"v":{"ha":1360,"x_min":0,"x_max":1190,"o":"m 0 1190 l 340 1190 l 340 680 l 510 680 l 510 510 l 680 510 l 680 680 l 850 680 l 850 1190 l 1190 1190 l 1190 510 l 1020 510 l 1020 340 l 850 340 l 850 170 l 680 170 l 680 0 l 510 0 l 510 170 l 340 170 l 340 340 l 170 340 l 170 510 l 0 510 l 0 1190 z "},"w":{"ha":1360,"x_min":0,"x_max":1190,"o":"m 0 1190 l 340 1190 l 340 510 l 510 510 l 510 680 l 680 680 l 680 510 l 850 510 l 850 1190 l 1190 1190 l 1190 0 l 850 0 l 850 170 l 680 170 l 680 340 l 510 340 l 510 170 l 340 170 l 340 0 l 0 0 l 0 1190 z "},"x":{"ha":1360,"x_min":0,"x_max":1190,"o":"m 0 1190 l 340 1190 l 340 1020 l 510 1020 l 510 850 l 680 850 l 680 1020 l 850 1020 l 850 1190 l 1190 1190 l 1190 850 l 1020 850 l 1020 680 l 850 680 l 850 510 l 1020 510 l 1020 340 l 1190 340 l 1190 0 l 850 0 l 850 170 l 680 170 l 680 340 l 510 340 l 510 170 l 340 170 l 340 0 l 0 0 l 0 340 l 170 340 l 170 510 l 340 510 l 340 680 l 170 680 l 170 850 l 0 850 l 0 1190 z "},"y":{"ha":1360,"x_min":170,"x_max":1190,"o":"m 170 1190 l 510 1190 l 510 680 l 850 680 l 850 1190 l 1190 1190 l 1190 680 l 1020 680 l 1020 510 l 850 510 l 850 0 l 510 0 l 510 510 l 340 510 l 340 680 l 170 680 l 170 1190 z "},"z":{"ha":1360,"x_min":0,"x_max":1190,"o":"m 0 1190 l 1190 1190 l 1190 850 l 1020 850 l 1020 680 l 850 680 l 850 510 l 680 510 l 680 340 l 510 340 l 510 170 l 1190 170 l 1190 0 l 0 0 l 0 340 l 170 340 l 170 510 l 340 510 l 340 680 l 510 680 l 510 850 l 680 850 l 680 1020 l 0 1020 l 0 1190 z "},"{":{"ha":1360,"x_min":170,"x_max":850,"o":"m 510 1190 l 850 1190 l 850 1020 l 680 1020 l 680 680 l 510 680 l 510 510 l 680 510 l 680 170 l 850 170 l 850 0 l 510 0 l 510 170 l 340 170 l 340 510 l 170 510 l 170 680 l 340 680 l 340 1020 l 510 1020 l 510 1190 z "},"|":{"ha":1360,"x_min":510,"x_max":680,"o":"m 510 1190 l 680 1190 l 680 0 l 510 0 l 510 1190 z "},"}":{"ha":1360,"x_min":340,"x_max":1020,"o":"m 340 1190 l 680 1190 l 680 1020 l 850 1020 l 850 680 l 1020 680 l 1020 510 l 850 510 l 850 170 l 680 170 l 680 0 l 340 0 l 340 170 l 510 170 l 510 510 l 680 510 l 680 680 l 510 680 l 510 1020 l 340 1020 l 340 1190 z "},"~":{"ha":1360,"x_min":170,"x_max":1020,"o":"m 340 1020 l 340 850 l 170 850 l 170 1020 l 340 1020 m 850 1020 l 850 1190 l 1020 1190 l 1020 1020 l 850 1020 m 340 1020 l 340 1190 l 680 1190 l 680 1020 l 850 1020 l 850 850 l 510 850 l 510 1020 l 340 1020 z "},"©":{"ha":1360,"x_min":0,"x_max":1190,"o":"m 170 170 l 0 170 l 0 1020 l 170 1020 l 170 170 m 1020 170 l 1020 0 l 170 0 l 170 170 l 1020 170 m 1020 1020 l 1190 1020 l 1190 170 l 1020 170 l 1020 1020 m 340 850 l 850 850 l 850 680 l 510 680 l 510 510 l 850 510 l 850 340 l 340 340 l 340 850 m 170 1020 l 170 1190 l 1020 1190 l 1020 1020 l 170 1020 z "},"®":{"ha":1360,"x_min":0,"x_max":1190,"o":"m 170 170 l 0 170 l 0 1020 l 170 1020 l 170 170 m 1020 170 l 1020 0 l 170 0 l 170 170 l 1020 170 m 1020 1020 l 1190 1020 l 1190 170 l 1020 170 l 1020 1020 m 340 850 l 850 850 l 850 680 l 510 680 l 510 340 l 340 340 l 340 850 m 170 1020 l 170 1190 l 1020 1190 l 1020 1020 l 170 1020 z "},"ß":{"ha":1360,"x_min":0,"x_max":1190,"o":"m 0 1190 l 1190 1190 l 1190 0 l 0 0 l 0 1190 z "},"å":{"ha":1360,"x_min":0,"x_max":1190,"o":"m 0 510 l 340 510 l 340 1020 l 510 1020 l 510 1190 l 680 1190 l 680 1020 l 850 1020 l 850 510 l 1190 510 l 1190 0 l 0 0 l 0 510 z "},"ƒ":{"ha":1360,"x_min":170,"x_max":1020,"o":"m 170 0 l 170 1190 l 340 1190 l 340 1020 l 680 1020 l 680 850 l 1020 850 l 1020 680 l 680 680 l 680 510 l 340 510 l 340 0 l 170 0 z "},"π":{"ha":1360,"x_min":0,"x_max":1190,"o":"m 170 170 l 0 170 l 0 1020 l 170 1020 l 170 170 m 1020 170 l 1020 0 l 170 0 l 170 170 l 340 170 l 340 850 l 850 850 l 850 340 l 510 340 l 510 170 l 1020 170 m 510 680 l 510 510 l 680 510 l 680 680 l 510 680 m 1020 1020 l 1190 1020 l 1190 170 l 1020 170 l 1020 1020 m 170 1020 l 170 1190 l 1020 1190 l 1020 1020 l 170 1020 z "},"‘":{"ha":1360,"x_min":510,"x_max":850,"o":"m 680 1020 l 680 1190 l 850 1190 l 850 1020 l 680 1020 m 510 1020 l 680 1020 l 680 850 l 850 850 l 850 510 l 510 510 l 510 1020 z "},"’":{"ha":1360,"x_min":340,"x_max":680,"o":"m 510 680 l 510 510 l 340 510 l 340 680 l 510 680 m 340 1190 l 680 1190 l 680 680 l 510 680 l 510 850 l 340 850 l 340 1190 z "},"“":{"ha":1360,"x_min":170,"x_max":1020,"o":"m 340 1020 l 340 1190 l 510 1190 l 510 1020 l 340 1020 m 170 1020 l 340 1020 l 340 850 l 510 850 l 510 510 l 170 510 l 170 1020 m 850 1020 l 850 1190 l 1020 1190 l 1020 1020 l 850 1020 m 680 1020 l 850 1020 l 850 850 l 1020 850 l 1020 510 l 680 510 l 680 1020 z "},"”":{"ha":1360,"x_min":170,"x_max":1020,"o":"m 340 680 l 340 510 l 170 510 l 170 680 l 340 680 m 170 1190 l 510 1190 l 510 680 l 340 680 l 340 850 l 170 850 l 170 1190 m 850 680 l 850 510 l 680 510 l 680 680 l 850 680 m 680 1190 l 1020 1190 l 1020 680 l 850 680 l 850 850 l 680 850 l 680 1190 z "},"•":{"ha":1360,"x_min":340,"x_max":680,"o":"m 340 680 l 680 680 l 680 340 l 340 340 l 340 680 z "},"™":{"ha":1360,"x_min":0,"x_max":1190,"o":"m 0 1190 l 510 1190 l 510 1020 l 340 1020 l 340 510 l 170 510 l 170 1020 l 0 1020 l 0 1190 m 680 1190 l 850 1190 l 850 1020 l 1020 1020 l 1020 1190 l 1190 1190 l 1190 510 l 1020 510 l 1020 850 l 850 850 l 850 510 l 680 510 l 680 1190 z "}," ":{"ha":1360,"x_min":0,"x_max":0,"o":""},"‐":{"ha":1360,"x_min":0,"x_max":0,"o":""}}}
